<svg xmlns="http://www.w3.org/2000/svg" viewBox="0 0 64 64"><g data-name="Glyph"><path d="M5 54h3a3.009 3.009 0 0 0 3 3h4a3.009 3.009 0 0 0 3-3V39a3.009 3.009 0 0 0-3-3h-4a3.009 3.009 0 0 0-3 3v-8.26a22.555 22.555 0 0 1 6-15.33 2.979 2.979 0 0 0 4.08.22 21.7 21.7 0 0 1 13.96-4.92 21.63 21.63 0 0 1 13.88 4.91 2.98 2.98 0 0 0 4.09-.21A22.568 22.568 0 0 1 56 30.73V39a3.009 3.009 0 0 0-3-3h-4a3.009 3.009 0 0 0-3 3v15a3.009 3.009 0 0 0 3 3h4a3 3 0 0 0 1-.18V57a3.009 3.009 0 0 1-3 3H36a3.009 3.009 0 0 1-3-3V45.2a17.663 17.663 0 0 0 9.94-3.72 4.422 4.422 0 0 0 1.56-3.41v-6.3a.5.5 0 0 0-.7-.457l-8.86 3.927a7.294 7.294 0 0 1-5.88 0l-8.86-3.928a.5.5 0 0 0-.7.457v6.3a4.422 4.422 0 0 0 1.56 3.41A17.663 17.663 0 0 0 31 45.2V57a5 5 0 0 0 5 5h15a5 5 0 0 0 5-5v-3h3a3.009 3.009 0 0 0 3-3V30.73a28.47 28.47 0 0 0-8.41-20.27 30.214 30.214 0 0 0-21.63-8.75 30.2 30.2 0 0 0-21.53 8.73A28.493 28.493 0 0 0 2 30.73V51a3.009 3.009 0 0 0 3 3Zm55-3a1 1 0 0 1-1 1h-3V41h3a1 1 0 0 1 1 1Zm-7.15-38.42A26.469 26.469 0 0 1 60 30.73v8.45a3 3 0 0 0-1-.18h-1v-8.27a24.555 24.555 0 0 0-6.56-16.75ZM4 30.73a26.475 26.475 0 0 1 7.16-18.16l1.4 1.41A24.579 24.579 0 0 0 6 30.74V39H5a3 3 0 0 0-1 .18ZM4 42a1 1 0 0 1 1-1h3v11H5a1 1 0 0 1-1-1Z"/><path d="M34.13 33.41c2.647-1.172 11.557-5.113 14.04-6.22a3.129 3.129 0 0 0 0-5.72l-14.04-6.23a5.266 5.266 0 0 0-4.26 0l-14.04 6.23a3.129 3.129 0 0 0 0 5.72c2.433 1.085 11.447 5.072 14.04 6.22a5.266 5.266 0 0 0 4.26 0Z"/></g></svg>