<svg xmlns="http://www.w3.org/2000/svg" viewBox="0 0 512 512"><path fill-rule="evenodd" d="M123.196 469.731V58.056H8v411.675h115.196zM39.559 94.859h52.078a8 8 0 0 1 8 8v222.458a8 8 0 0 1-8 8H39.559a8 8 0 0 1-8-8V102.859a8 8 0 0 1 8-8zm26.039 257.937c21.606 0 39.124 17.518 39.124 39.125 0 21.606-17.518 39.124-39.124 39.124s-39.125-17.518-39.125-39.124c.001-21.606 17.519-39.125 39.125-39.125zM181.141 94.859h52.078a8 8 0 0 1 8 8v222.458a8 8 0 0 1-8 8h-52.078a8 8 0 0 1-8-8V102.859a8 8 0 0 1 8-8zm-31.56-36.803v411.675h115.197V58.056H149.581zm57.599 294.74c21.606 0 39.125 17.518 39.125 39.125 0 21.606-17.519 39.124-39.125 39.124s-39.124-17.518-39.124-39.124c-.001-21.606 17.518-39.125 39.124-39.125zm130.864-239.955 53.441 199.443 34.869-9.343-53.441-199.443-34.869 9.343zM376.5 85.994a7.99 7.99 0 0 1 9.781 5.656l57.577 214.878a7.99 7.99 0 0 1-5.656 9.781l-50.304 13.479a7.99 7.99 0 0 1-9.781-5.656L320.54 109.254a7.99 7.99 0 0 1 5.656-9.781L376.5 85.994zm20.951-43.725L504 439.916l-111.271 29.815L286.18 72.084l111.271-29.815zm20.656 299.613c-20.83 5.581-33.249 27.06-27.664 47.901 5.58 20.825 27.061 33.249 47.901 27.664 20.831-5.582 33.249-27.058 27.665-47.901-5.58-20.824-27.062-33.248-47.902-27.664zm4.125 15.437c-12.365 3.313-19.667 15.966-16.352 28.339 3.315 12.374 15.973 19.665 28.338 16.352 12.365-3.313 19.667-15.965 16.352-28.338-3.314-12.374-15.973-19.666-28.338-16.353zm-197.013-40.002V110.859h-36.078v206.458h36.078zm-18.039 51.479c12.773 0 23.125 10.352 23.125 23.125s-10.352 23.124-23.125 23.124c-12.772 0-23.124-10.352-23.124-23.124-.001-12.773 10.351-23.125 23.124-23.125zM83.637 317.317H47.559V110.859h36.078v206.458zm-18.039 51.479c12.773 0 23.124 10.352 23.124 23.125s-10.352 23.124-23.124 23.124c-12.773 0-23.125-10.352-23.125-23.124 0-12.773 10.352-23.125 23.125-23.125z" clip-rule="evenodd"/></svg>